STARTFONT 2.1
COMMENT
COMMENT Converted from OpenType font "Bengali.ttf" by "otf2bdf 3.0".
COMMENT
FONT -FreeType-Noto Sans Bengali-Medium-R-Normal--12-90-100-100-P-63-ISO10646-1
SIZE 9 100 100
FONTBOUNDINGBOX 22 18 -7 -5
STARTPROPERTIES 19
FOUNDRY "FreeType"
FAMILY_NAME "Noto Sans Bengali"
WEIGHT_NAME "Medium"
SLANT "R"
SETWIDTH_NAME "Normal"
ADD_STYLE_NAME ""
PIXEL_SIZE 12
POINT_SIZE 90
RESOLUTION_X 100
RESOLUTION_Y 100
SPACING "P"
AVERAGE_WIDTH 63
CHARSET_REGISTRY "ISO10646"
CHARSET_ENCODING "1"
FONT_ASCENT 11
FONT_DESCENT 5
COPYRIGHT "Copyright 2022 The Noto Project Authors (https://github.com/notofonts/bengali)"
_OTF_FONTFILE "Bengali.ttf"
_OTF_PSNAME "NotoSansBengali-Regular"
ENDPROPERTIES
CHARS 456
STARTCHAR 0000
ENCODING 0
SWIDTH 0 0
DWIDTH 0 0
BBX 0 0 0 0
BITMAP
ENDCHAR
STARTCHAR 000D
ENCODING 13
SWIDTH 240 0
DWIDTH 3 0
BBX 0 0 0 0
BITMAP
ENDCHAR
STARTCHAR 0020
ENCODING 32
SWIDTH 240 0
DWIDTH 3 0
BBX 0 0 0 0
BITMAP
ENDCHAR
STARTCHAR 0021
ENCODING 33
SWIDTH 400 0
DWIDTH 5 0
BBX 1 9 2 0
BITMAP
80
80
80
80
80
80
00
80
80
ENDCHAR
STARTCHAR 0022
ENCODING 34
SWIDTH 480 0
DWIDTH 6 0
BBX 4 3 1 6
BITMAP
D0
50
50
ENDCHAR
STARTCHAR 0023
ENCODING 35
SWIDTH 640 0
DWIDTH 8 0
BBX 8 8 0 0
BITMAP
12
14
7F
24
24
FE
28
28
ENDCHAR
STARTCHAR 0024
ENCODING 36
SWIDTH 560 0
DWIDTH 7 0
BBX 5 10 1 -1
BITMAP
20
F8
A0
A0
70
28
28
F8
20
20
ENDCHAR
STARTCHAR 0025
ENCODING 37
SWIDTH 800 0
DWIDTH 10 0
BBX 9 8 1 0
BITMAP
E200
A400
A400
A800
5700
1480
2480
6700
ENDCHAR
STARTCHAR 0026
ENCODING 38
SWIDTH 720 0
DWIDTH 9 0
BBX 8 9 1 0
BITMAP
70
C8
48
50
61
9A
8E
86
FB
ENDCHAR
STARTCHAR 0027
ENCODING 39
SWIDTH 320 0
DWIDTH 4 0
BBX 2 3 1 6
BITMAP
C0
40
40
ENDCHAR
STARTCHAR 0028
ENCODING 40
SWIDTH 400 0
DWIDTH 5 0
BBX 3 12 1 -2
BITMAP
20
40
40
40
C0
80
80
40
40
40
60
20
ENDCHAR
STARTCHAR 0029
ENCODING 41
SWIDTH 400 0
DWIDTH 5 0
BBX 3 12 1 -2
BITMAP
80
40
40
20
20
20
20
20
60
40
40
80
ENDCHAR
STARTCHAR 002A
ENCODING 42
SWIDTH 640 0
DWIDTH 8 0
BBX 6 5 1 4
BITMAP
20
A4
FC
30
58
ENDCHAR
STARTCHAR 002B
ENCODING 43
SWIDTH 560 0
DWIDTH 7 0
BBX 6 6 1 1
BITMAP
20
20
FC
20
20
20
ENDCHAR
STARTCHAR 002C
ENCODING 44
SWIDTH 240 0
DWIDTH 3 0
BBX 1 2 1 -1
BITMAP
80
80
ENDCHAR
STARTCHAR 002D
ENCODING 45
SWIDTH 320 0
DWIDTH 4 0
BBX 3 1 1 3
BITMAP
E0
ENDCHAR
STARTCHAR 002E
ENCODING 46
SWIDTH 240 0
DWIDTH 3 0
BBX 1 2 1 0
BITMAP
80
80
ENDCHAR
STARTCHAR 002F
ENCODING 47
SWIDTH 480 0
DWIDTH 6 0
BBX 4 12 1 -2
BITMAP
10
10
20
20
20
40
40
40
40
80
80
80
ENDCHAR
STARTCHAR 0030
ENCODING 48
SWIDTH 560 0
DWIDTH 7 0
BBX 5 9 1 0
BITMAP
70
88
88
88
88
88
88
88
70
ENDCHAR
STARTCHAR 0031
ENCODING 49
SWIDTH 560 0
DWIDTH 7 0
BBX 3 9 1 0
BITMAP
20
60
A0
20
20
20
20
20
20
ENDCHAR
STARTCHAR 0032
ENCODING 50
SWIDTH 560 0
DWIDTH 7 0
BBX 5 9 1 0
BITMAP
F0
98
08
18
10
20
40
80
F8
ENDCHAR
STARTCHAR 0033
ENCODING 51
SWIDTH 560 0
DWIDTH 7 0
BBX 6 9 0 0
BITMAP
78
44
04
08
38
04
04
04
F8
ENDCHAR
STARTCHAR 0034
ENCODING 52
SWIDTH 560 0
DWIDTH 7 0
BBX 7 9 0 0
BITMAP
08
18
18
28
48
C8
FE
08
08
ENDCHAR
STARTCHAR 0035
ENCODING 53
SWIDTH 560 0
DWIDTH 7 0
BBX 5 9 1 0
BITMAP
F8
80
80
80
F8
08
08
08
F0
ENDCHAR
STARTCHAR 0036
ENCODING 54
SWIDTH 560 0
DWIDTH 7 0
BBX 5 9 1 0
BITMAP
78
C0
80
B0
C8
88
88
88
70
ENDCHAR
STARTCHAR 0037
ENCODING 55
SWIDTH 560 0
DWIDTH 7 0
BBX 5 9 1 0
BITMAP
F8
08
08
10
10
20
20
60
40
ENDCHAR
STARTCHAR 0038
ENCODING 56
SWIDTH 560 0
DWIDTH 7 0
BBX 5 9 1 0
BITMAP
70
88
88
D0
70
88
88
88
F0
ENDCHAR
STARTCHAR 0039
ENCODING 57
SWIDTH 560 0
DWIDTH 7 0
BBX 5 9 1 0
BITMAP
70
88
88
88
98
68
08
18
F0
ENDCHAR
STARTCHAR 003A
ENCODING 58
SWIDTH 320 0
DWIDTH 4 0
BBX 2 7 1 0
BITMAP
C0
80
00
00
00
80
C0
ENDCHAR
STARTCHAR 003B
ENCODING 59
SWIDTH 320 0
DWIDTH 4 0
BBX 2 8 1 -1
BITMAP
C0
80
00
00
00
00
80
80
ENDCHAR
STARTCHAR 003C
ENCODING 60
SWIDTH 560 0
DWIDTH 7 0
BBX 6 6 1 1
BITMAP
0C
30
40
C0
30
0C
ENDCHAR
STARTCHAR 003D
ENCODING 61
SWIDTH 560 0
DWIDTH 7 0
BBX 6 4 1 2
BITMAP
FC
00
00
FC
ENDCHAR
STARTCHAR 003E
ENCODING 62
SWIDTH 560 0
DWIDTH 7 0
BBX 6 6 1 1
BITMAP
80
60
18
1C
60
80
ENDCHAR
STARTCHAR 003F
ENCODING 63
SWIDTH 480 0
DWIDTH 6 0
BBX 5 9 1 0
BITMAP
F0
10
08
10
20
40
00
40
60
ENDCHAR
STARTCHAR 0040
ENCODING 64
SWIDTH 880 0
DWIDTH 11 0
BBX 10 10 1 -1
BITMAP
1E00
6100
CC80
9280
A240
A280
B680
9900
4000
3E00
ENDCHAR
STARTCHAR 0041
ENCODING 65
SWIDTH 640 0
DWIDTH 8 0
BBX 8 9 0 0
BITMAP
18
18
18
24
24
7E
42
42
81
ENDCHAR
STARTCHAR 0042
ENCODING 66
SWIDTH 640 0
DWIDTH 8 0
BBX 6 9 1 0
BITMAP
F8
84
84
84
F8
84
84
84
F8
ENDCHAR
STARTCHAR 0043
ENCODING 67
SWIDTH 640 0
DWIDTH 8 0
BBX 7 9 1 0
BITMAP
3E
40
80
80
80
80
80
40
7C
ENDCHAR
STARTCHAR 0044
ENCODING 68
SWIDTH 720 0
DWIDTH 9 0
BBX 7 9 1 0
BITMAP
F8
84
82
82
82
82
82
84
F8
ENDCHAR
STARTCHAR 0045
ENCODING 69
SWIDTH 560 0
DWIDTH 7 0
BBX 5 9 1 0
BITMAP
F8
80
80
80
F8
80
80
80
F8
ENDCHAR
STARTCHAR 0046
ENCODING 70
SWIDTH 480 0
DWIDTH 6 0
BBX 5 9 1 0
BITMAP
F8
80
80
80
F8
80
80
80
80
ENDCHAR
STARTCHAR 0047
ENCODING 71
SWIDTH 720 0
DWIDTH 9 0
BBX 7 9 1 0
BITMAP
3E
40
80
80
8E
82
82
42
3E
ENDCHAR
STARTCHAR 0048
ENCODING 72
SWIDTH 720 0
DWIDTH 9 0
BBX 7 9 1 0
BITMAP
82
82
82
82
FE
82
82
82
82
ENDCHAR
STARTCHAR 0049
ENCODING 73
SWIDTH 320 0
DWIDTH 4 0
BBX 4 9 0 0
BITMAP
F0
20
20
20
20
20
20
20
F0
ENDCHAR
STARTCHAR 004A
ENCODING 74
SWIDTH 240 0
DWIDTH 3 0
BBX 3 11 -1 -2
BITMAP
20
20
20
20
20
20
20
20
20
20
E0
ENDCHAR
STARTCHAR 004B
ENCODING 75
SWIDTH 640 0
DWIDTH 8 0
BBX 7 9 1 0
BITMAP
86
88
90
A0
E0
90
88
8C
86
ENDCHAR
STARTCHAR 004C
ENCODING 76
SWIDTH 560 0
DWIDTH 7 0
BBX 5 9 1 0
BITMAP
80
80
80
80
80
80
80
80
F8
ENDCHAR
STARTCHAR 004D
ENCODING 77
SWIDTH 880 0
DWIDTH 11 0
BBX 9 9 1 0
BITMAP
C180
C180
A180
A280
B280
9480
9480
8C80
8880
ENDCHAR
STARTCHAR 004E
ENCODING 78
SWIDTH 800 0
DWIDTH 10 0
BBX 7 9 1 0
BITMAP
C2
C2
A2
B2
92
8A
8E
86
82
ENDCHAR
STARTCHAR 004F
ENCODING 79
SWIDTH 800 0
DWIDTH 10 0
BBX 8 9 1 0
BITMAP
3C
42
83
81
81
81
83
42
7C
ENDCHAR
STARTCHAR 0050
ENCODING 80
SWIDTH 640 0
DWIDTH 8 0
BBX 6 9 1 0
BITMAP
F8
8C
84
84
98
E0
80
80
80
ENDCHAR
STARTCHAR 0051
ENCODING 81
SWIDTH 800 0
DWIDTH 10 0
BBX 8 11 1 -2
BITMAP
3C
42
83
81
81
81
83
42
7C
04
07
ENDCHAR
STARTCHAR 0052
ENCODING 82
SWIDTH 640 0
DWIDTH 8 0
BBX 7 9 1 0
BITMAP
F8
8C
84
84
F8
90
88
8C
86
ENDCHAR
STARTCHAR 0053
ENCODING 83
SWIDTH 560 0
DWIDTH 7 0
BBX 5 9 1 0
BITMAP
78
80
80
C0
70
18
08
08
F0
ENDCHAR
STARTCHAR 0054
ENCODING 84
SWIDTH 560 0
DWIDTH 7 0
BBX 7 9 0 0
BITMAP
FE
10
10
10
10
10
10
10
10
ENDCHAR
STARTCHAR 0055
ENCODING 85
SWIDTH 720 0
DWIDTH 9 0
BBX 7 9 1 0
BITMAP
82
82
82
82
82
82
82
C6
7C
ENDCHAR
STARTCHAR 0056
ENCODING 86
SWIDTH 640 0
DWIDTH 8 0
BBX 8 9 0 0
BITMAP
83
42
46
44
24
2C
28
18
10
ENDCHAR
STARTCHAR 0057
ENCODING 87
SWIDTH 960 0
DWIDTH 12 0
BBX 11 9 0 0
BITMAP
8420
4620
4E20
4A60
4940
2940
3140
3080
3080
ENDCHAR
STARTCHAR 0058
ENCODING 88
SWIDTH 560 0
DWIDTH 7 0
BBX 7 9 0 0
BITMAP
C2
44
28
38
10
28
2C
44
C2
ENDCHAR
STARTCHAR 0059
ENCODING 89
SWIDTH 560 0
DWIDTH 7 0
BBX 7 9 0 0
BITMAP
82
44
44
28
38
10
10
10
10
ENDCHAR
STARTCHAR 005A
ENCODING 90
SWIDTH 560 0
DWIDTH 7 0
BBX 7 9 0 0
BITMAP
7E
04
08
08
10
20
20
40
FE
ENDCHAR
STARTCHAR 005B
ENCODING 91
SWIDTH 400 0
DWIDTH 5 0
BBX 2 12 2 -2
BITMAP
C0
80
80
80
80
80
80
80
80
80
80
C0
ENDCHAR
STARTCHAR 005C
ENCODING 92
SWIDTH 480 0
DWIDTH 6 0
BBX 4 12 1 -2
BITMAP
80
80
80
40
40
40
40
20
20
20
10
10
ENDCHAR
STARTCHAR 005D
ENCODING 93
SWIDTH 400 0
DWIDTH 5 0
BBX 2 12 1 -2
BITMAP
C0
40
40
40
40
40
40
40
40
40
40
C0
ENDCHAR
STARTCHAR 005E
ENCODING 94
SWIDTH 560 0
DWIDTH 7 0
BBX 6 6 1 3
BITMAP
20
30
50
48
88
84
ENDCHAR
STARTCHAR 005F
ENCODING 95
SWIDTH 400 0
DWIDTH 5 0
BBX 5 1 0 -2
BITMAP
F8
ENDCHAR
STARTCHAR 0060
ENCODING 96
SWIDTH 320 0
DWIDTH 4 0
BBX 3 2 0 8
BITMAP
C0
60
ENDCHAR
STARTCHAR 0061
ENCODING 97
SWIDTH 560 0
DWIDTH 7 0
BBX 5 7 1 0
BITMAP
70
88
08
78
88
88
F8
ENDCHAR
STARTCHAR 0062
ENCODING 98
SWIDTH 640 0
DWIDTH 8 0
BBX 6 10 1 0
BITMAP
80
80
80
B8
CC
84
84
84
CC
F8
ENDCHAR
STARTCHAR 0063
ENCODING 99
SWIDTH 480 0
DWIDTH 6 0
BBX 5 7 1 0
BITMAP
78
C0
80
80
80
80
70
ENDCHAR
STARTCHAR 0064
ENCODING 100
SWIDTH 640 0
DWIDTH 8 0
BBX 6 10 1 0
BITMAP
04
04
04
74
CC
8C
84
8C
8C
74
ENDCHAR
STARTCHAR 0065
ENCODING 101
SWIDTH 560 0
DWIDTH 7 0
BBX 5 7 1 0
BITMAP
70
88
88
F8
80
80
78
ENDCHAR
STARTCHAR 0066
ENCODING 102
SWIDTH 320 0
DWIDTH 4 0
BBX 5 10 0 0
BITMAP
10
28
40
F0
40
40
40
40
40
40
ENDCHAR
STARTCHAR 0067
ENCODING 103
SWIDTH 640 0
DWIDTH 8 0
BBX 6 10 1 -3
BITMAP
74
CC
8C
84
84
8C
74
04
08
F8
ENDCHAR
STARTCHAR 0068
ENCODING 104
SWIDTH 640 0
DWIDTH 8 0
BBX 6 10 1 0
BITMAP
80
80
80
B8
CC
84
84
84
84
84
ENDCHAR
STARTCHAR 0069
ENCODING 105
SWIDTH 240 0
DWIDTH 3 0
BBX 1 9 1 0
BITMAP
80
00
80
80
80
80
80
80
80
ENDCHAR
STARTCHAR 006A
ENCODING 106
SWIDTH 240 0
DWIDTH 3 0
BBX 3 12 -1 -3
BITMAP
20
00
20
20
20
20
20
20
20
20
20
E0
ENDCHAR
STARTCHAR 006B
ENCODING 107
SWIDTH 560 0
DWIDTH 7 0
BBX 6 10 1 0
BITMAP
80
80
80
88
90
A0
E0
B0
90
8C
ENDCHAR
STARTCHAR 006C
ENCODING 108
SWIDTH 240 0
DWIDTH 3 0
BBX 1 10 1 0
BITMAP
80
80
80
80
80
80
80
80
80
80
ENDCHAR
STARTCHAR 006D
ENCODING 109
SWIDTH 960 0
DWIDTH 12 0
BBX 10 7 1 0
BITMAP
BB80
CCC0
8840
8840
8840
8840
8840
ENDCHAR
STARTCHAR 006E
ENCODING 110
SWIDTH 640 0
DWIDTH 8 0
BBX 6 7 1 0
BITMAP
B8
CC
84
84
84
84
84
ENDCHAR
STARTCHAR 006F
ENCODING 111
SWIDTH 640 0
DWIDTH 8 0
BBX 6 7 1 0
BITMAP
70
C8
84
84
84
8C
78
ENDCHAR
STARTCHAR 0070
ENCODING 112
SWIDTH 640 0
DWIDTH 8 0
BBX 6 10 1 -3
BITMAP
B8
CC
84
84
84
CC
F8
80
80
80
ENDCHAR
STARTCHAR 0071
ENCODING 113
SWIDTH 640 0
DWIDTH 8 0
BBX 6 10 1 -3
BITMAP
74
CC
8C
84
8C
8C
74
04
04
04
ENDCHAR
STARTCHAR 0072
ENCODING 114
SWIDTH 400 0
DWIDTH 5 0
BBX 4 7 1 0
BITMAP
B0
C0
80
80
80
80
80
ENDCHAR
STARTCHAR 0073
ENCODING 115
SWIDTH 480 0
DWIDTH 6 0
BBX 4 7 1 0
BITMAP
70
90
80
60
10
10
F0
ENDCHAR
STARTCHAR 0074
ENCODING 116
SWIDTH 400 0
DWIDTH 5 0
BBX 4 8 0 0
BITMAP
40
F0
40
40
40
40
40
30
ENDCHAR
STARTCHAR 0075
ENCODING 117
SWIDTH 640 0
DWIDTH 8 0
BBX 6 7 1 0
BITMAP
84
84
84
84
84
8C
74
ENDCHAR
STARTCHAR 0076
ENCODING 118
SWIDTH 480 0
DWIDTH 6 0
BBX 6 7 0 0
BITMAP
84
C4
4C
48
28
30
30
ENDCHAR
STARTCHAR 0077
ENCODING 119
SWIDTH 800 0
DWIDTH 10 0
BBX 10 7 0 0
BITMAP
8C40
CC80
4C80
5680
5380
3300
2300
ENDCHAR
STARTCHAR 0078
ENCODING 120
SWIDTH 560 0
DWIDTH 7 0
BBX 6 7 0 0
BITMAP
C4
48
28
10
38
68
C4
ENDCHAR
STARTCHAR 0079
ENCODING 121
SWIDTH 480 0
DWIDTH 6 0
BBX 6 10 0 -3
BITMAP
84
C4
4C
48
28
30
10
10
20
C0
ENDCHAR
STARTCHAR 007A
ENCODING 122
SWIDTH 480 0
DWIDTH 6 0
BBX 5 7 0 0
BITMAP
78
08
10
30
20
40
F8
ENDCHAR
STARTCHAR 007B
ENCODING 123
SWIDTH 400 0
DWIDTH 5 0
BBX 3 12 1 -2
BITMAP
20
40
40
40
40
C0
C0
40
40
40
40
20
ENDCHAR
STARTCHAR 007C
ENCODING 124
SWIDTH 560 0
DWIDTH 7 0
BBX 1 12 3 -2
BITMAP
80
80
80
80
80
80
80
80
80
80
80
80
ENDCHAR
STARTCHAR 007D
ENCODING 125
SWIDTH 480 0
DWIDTH 6 0
BBX 4 12 1 -2
BITMAP
C0
40
40
40
40
30
60
40
40
40
40
80
ENDCHAR
STARTCHAR 007E
ENCODING 126
SWIDTH 560 0
DWIDTH 7 0
BBX 6 2 1 3
BITMAP
E4
98
ENDCHAR
STARTCHAR 00A0
ENCODING 160
SWIDTH 240 0
DWIDTH 3 0
BBX 0 0 0 0
BITMAP
ENDCHAR
STARTCHAR 00A1
ENCODING 161
SWIDTH 240 0
DWIDTH 3 0
BBX 1 9 1 -2
BITMAP
80
80
00
80
80
80
80
80
80
ENDCHAR
STARTCHAR 00A2
ENCODING 162
SWIDTH 560 0
DWIDTH 7 0
BBX 5 9 1 0
BITMAP
20
78
C0
80
80
80
40
78
20
ENDCHAR
STARTCHAR 00A3
ENCODING 163
SWIDTH 560 0
DWIDTH 7 0
BBX 7 9 0 0
BITMAP
3C
20
20
20
F8
20
20
40
FE
ENDCHAR
STARTCHAR 00A5
ENCODING 165
SWIDTH 560 0
DWIDTH 7 0
BBX 7 9 0 0
BITMAP
C2
44
64
28
18
7C
7C
10
10
ENDCHAR
STARTCHAR 00A7
ENCODING 167
SWIDTH 480 0
DWIDTH 6 0
BBX 5 10 1 0
BITMAP
60
90
80
60
90
88
70
10
08
F0
ENDCHAR
STARTCHAR 00A8
ENCODING 168
SWIDTH 560 0
DWIDTH 7 0
BBX 3 1 2 8
BITMAP
A0
ENDCHAR
STARTCHAR 00A9
ENCODING 169
SWIDTH 800 0
DWIDTH 10 0
BBX 9 9 1 0
BITMAP
3E00
4100
9D00
A080
A080
A080
BD00
4100
3E00
ENDCHAR
STARTCHAR 00AA
ENCODING 170
SWIDTH 320 0
DWIDTH 4 0
BBX 4 4 0 5
BITMAP
70
30
D0
F0
ENDCHAR
STARTCHAR 00AB
ENCODING 171
SWIDTH 480 0
DWIDTH 6 0
BBX 6 5 0 1
BITMAP
24
68
D0
48
2C
ENDCHAR
STARTCHAR 00AD
ENCODING 173
SWIDTH 320 0
DWIDTH 4 0
BBX 3 1 1 3
BITMAP
E0
ENDCHAR
STARTCHAR 00AE
ENCODING 174
SWIDTH 800 0
DWIDTH 10 0
BBX 9 9 1 0
BITMAP
3E00
4100
BD00
A480
BC80
A880
A500
4300
3E00
ENDCHAR
STARTCHAR 00AF
ENCODING 175
SWIDTH 480 0
DWIDTH 6 0
BBX 6 1 0 9
BITMAP
FC
ENDCHAR
STARTCHAR 00B0
ENCODING 176
SWIDTH 400 0
DWIDTH 5 0
BBX 4 4 1 5
BITMAP
E0
90
90
60
ENDCHAR
STARTCHAR 00B4
ENCODING 180
SWIDTH 320 0
DWIDTH 4 0
BBX 3 2 0 8
BITMAP
20
C0
ENDCHAR
STARTCHAR 00B6
ENCODING 182
SWIDTH 640 0
DWIDTH 8 0
BBX 6 12 1 -2
BITMAP
3C
F4
F4
F4
F4
F4
74
14
14
14
14
14
ENDCHAR
STARTCHAR 00B7
ENCODING 183
SWIDTH 240 0
DWIDTH 3 0
BBX 1 2 1 4
BITMAP
80
80
ENDCHAR
STARTCHAR 00B8
ENCODING 184
SWIDTH 240 0
DWIDTH 3 0
BBX 3 3 0 -3
BITMAP
40
20
C0
ENDCHAR
STARTCHAR 00BA
ENCODING 186
SWIDTH 400 0
DWIDTH 5 0
BBX 4 4 0 5
BITMAP
70
90
90
70
ENDCHAR
STARTCHAR 00BB
ENCODING 187
SWIDTH 480 0
DWIDTH 6 0
BBX 6 5 0 1
BITMAP
D0
48
24
28
D0
ENDCHAR
STARTCHAR 00BF
ENCODING 191
SWIDTH 400 0
DWIDTH 5 0
BBX 5 9 0 -2
BITMAP
10
30
00
10
20
40
80
80
78
ENDCHAR
STARTCHAR 00C0
ENCODING 192
SWIDTH 640 0
DWIDTH 8 0
BBX 8 12 0 0
BITMAP
30
10
08
18
18
18
24
24
7E
42
42
81
ENDCHAR
STARTCHAR 00C1
ENCODING 193
SWIDTH 640 0
DWIDTH 8 0
BBX 8 12 0 0
BITMAP
0C
08
10
18
18
18
24
24
7E
42
42
81
ENDCHAR
STARTCHAR 00C2
ENCODING 194
SWIDTH 640 0
DWIDTH 8 0
BBX 8 12 0 0
BITMAP
18
18
24
18
18
18
24
24
7E
42
42
81
ENDCHAR
STARTCHAR 00C3
ENCODING 195
SWIDTH 640 0
DWIDTH 8 0
BBX 8 11 0 0
BITMAP
3C
00
18
18
18
24
24
7E
42
42
81
ENDCHAR
STARTCHAR 00C4
ENCODING 196
SWIDTH 640 0
DWIDTH 8 0
BBX 8 11 0 0
BITMAP
24
00
18
18
18
24
24
7E
42
42
81
ENDCHAR
STARTCHAR 00C5
ENCODING 197
SWIDTH 640 0
DWIDTH 8 0
BBX 8 11 0 0
BITMAP
18
28
18
18
18
24
24
7E
42
42
81
ENDCHAR
STARTCHAR 00C6
ENCODING 198
SWIDTH 880 0
DWIDTH 11 0
BBX 10 9 0 0
BITMAP
0FC0
0A00
1200
1200
23C0
3E00
4200
4200
83C0
ENDCHAR
STARTCHAR 00C7
ENCODING 199
SWIDTH 640 0
DWIDTH 8 0
BBX 7 12 1 -3
BITMAP
3E
40
80
80
80
80
80
40
7C
10
08
38
ENDCHAR
STARTCHAR 00C8
ENCODING 200
SWIDTH 560 0
DWIDTH 7 0
BBX 5 12 1 0
BITMAP
60
20
10
F8
80
80
80
F8
80
80
80
F8
ENDCHAR
STARTCHAR 00C9
ENCODING 201
SWIDTH 560 0
DWIDTH 7 0
BBX 5 12 1 0
BITMAP
18
10
20
F8
80
80
80
F8
80
80
80
F8
ENDCHAR
STARTCHAR 00CA
ENCODING 202
SWIDTH 560 0
DWIDTH 7 0
BBX 5 12 1 0
BITMAP
20
70
08
F8
80
80
80
F8
80
80
80
F8
ENDCHAR
STARTCHAR 00CB
ENCODING 203
SWIDTH 560 0
DWIDTH 7 0
BBX 5 11 1 0
BITMAP
58
00
F8
80
80
80
F8
80
80
80
F8
ENDCHAR
STARTCHAR 00CC
ENCODING 204
SWIDTH 320 0
DWIDTH 4 0
BBX 4 12 0 0
BITMAP
C0
40
20
F0
20
20
20
20
20
20
20
F0
ENDCHAR
STARTCHAR 00CD
ENCODING 205
SWIDTH 320 0
DWIDTH 4 0
BBX 4 12 0 0
BITMAP
10
20
40
F0
20
20
20
20
20
20
20
F0
ENDCHAR
STARTCHAR 00CE
ENCODING 206
SWIDTH 320 0
DWIDTH 4 0
BBX 4 12 0 0
BITMAP
20
70
80
F0
20
20
20
20
20
20
20
F0
ENDCHAR
STARTCHAR 00CF
ENCODING 207
SWIDTH 320 0
DWIDTH 4 0
BBX 4 11 0 0
BITMAP
D0
00
F0
20
20
20
20
20
20
20
F0
ENDCHAR
STARTCHAR 00D0
ENCODING 208
SWIDTH 720 0
DWIDTH 9 0
BBX 8 9 0 0
BITMAP
7C
42
41
41
F9
41
41
42
7C
ENDCHAR
STARTCHAR 00D1
ENCODING 209
SWIDTH 800 0
DWIDTH 10 0
BBX 7 11 1 0
BITMAP
3C
40
C2
C2
A2
B2
92
8A
8E
86
82
ENDCHAR
STARTCHAR 00D2
ENCODING 210
SWIDTH 800 0
DWIDTH 10 0
BBX 8 12 1 0
BITMAP
30
10
08
3C
42
83
81
81
81
83
42
7C
ENDCHAR
STARTCHAR 00D3
ENCODING 211
SWIDTH 800 0
DWIDTH 10 0
BBX 8 12 1 0
BITMAP
0C
08
10
3C
42
83
81
81
81
83
42
7C
ENDCHAR
STARTCHAR 00D4
ENCODING 212
SWIDTH 800 0
DWIDTH 10 0
BBX 8 12 1 0
BITMAP
10
38
04
3C
42
83
81
81
81
83
42
7C
ENDCHAR
STARTCHAR 00D5
ENCODING 213
SWIDTH 800 0
DWIDTH 10 0
BBX 8 11 1 0
BITMAP
3C
00
3C
42
83
81
81
81
83
42
7C
ENDCHAR
STARTCHAR 00D6
ENCODING 214
SWIDTH 800 0
DWIDTH 10 0
BBX 8 11 1 0
BITMAP
2C
00
3C
42
83
81
81
81
83
42
7C
ENDCHAR
STARTCHAR 00D7
ENCODING 215
SWIDTH 560 0
DWIDTH 7 0
BBX 5 6 1 1
BITMAP
88
48
30
30
48
88
ENDCHAR
STARTCHAR 00D8
ENCODING 216
SWIDTH 800 0
DWIDTH 10 0
BBX 8 9 1 0
BITMAP
3E
46
87
89
91
91
A3
42
FC
ENDCHAR
STARTCHAR 00D9
ENCODING 217
SWIDTH 720 0
DWIDTH 9 0
BBX 7 12 1 0
BITMAP
20
10
00
82
82
82
82
82
82
82
C6
7C
ENDCHAR
STARTCHAR 00DA
ENCODING 218
SWIDTH 720 0
DWIDTH 9 0
BBX 7 12 1 0
BITMAP
08
18
00
82
82
82
82
82
82
82
C6
7C
ENDCHAR
STARTCHAR 00DB
ENCODING 219
SWIDTH 720 0
DWIDTH 9 0
BBX 7 12 1 0
BITMAP
10
28
44
82
82
82
82
82
82
82
C6
7C
ENDCHAR
STARTCHAR 00DC
ENCODING 220
SWIDTH 720 0
DWIDTH 9 0
BBX 7 11 1 0
BITMAP
28
00
82
82
82
82
82
82
82
C6
7C
ENDCHAR
STARTCHAR 00DD
ENCODING 221
SWIDTH 560 0
DWIDTH 7 0
BBX 7 12 0 0
BITMAP
08
18
00
82
44
44
28
38
10
10
10
10
ENDCHAR
STARTCHAR 00DE
ENCODING 222
SWIDTH 640 0
DWIDTH 8 0
BBX 6 9 1 0
BITMAP
80
80
F8
84
84
8C
F8
80
80
ENDCHAR
STARTCHAR 00DF
ENCODING 223
SWIDTH 640 0
DWIDTH 8 0
BBX 6 10 1 0
BITMAP
30
C8
8C
88
90
90
8C
84
84
BC
ENDCHAR
STARTCHAR 00E0
ENCODING 224
SWIDTH 560 0
DWIDTH 7 0
BBX 5 10 1 0
BITMAP
40
20
00
70
88
08
78
88
88
F8
ENDCHAR
STARTCHAR 00E1
ENCODING 225
SWIDTH 560 0
DWIDTH 7 0
BBX 5 10 1 0
BITMAP
10
30
00
70
88
08
78
88
88
F8
ENDCHAR
STARTCHAR 00E2
ENCODING 226
SWIDTH 560 0
DWIDTH 7 0
BBX 5 10 1 0
BITMAP
20
50
88
70
88
08
78
88
88
F8
ENDCHAR
STARTCHAR 00E3
ENCODING 227
SWIDTH 560 0
DWIDTH 7 0
BBX 5 9 1 0
BITMAP
F8
00
70
88
08
78
88
88
F8
ENDCHAR
STARTCHAR 00E4
ENCODING 228
SWIDTH 560 0
DWIDTH 7 0
BBX 5 9 1 0
BITMAP
50
00
70
88
08
78
88
88
F8
ENDCHAR
STARTCHAR 00E5
ENCODING 229
SWIDTH 560 0
DWIDTH 7 0
BBX 5 10 1 0
BITMAP
70
50
20
70
88
08
78
88
88
F8
ENDCHAR
STARTCHAR 00E6
ENCODING 230
SWIDTH 880 0
DWIDTH 11 0
BBX 9 7 1 0
BITMAP
7700
9880
0880
FF80
8800
9800
F780
ENDCHAR
STARTCHAR 00E7
ENCODING 231
SWIDTH 480 0
DWIDTH 6 0
BBX 5 10 1 -3
BITMAP
78
C0
80
80
80
80
70
20
10
70
ENDCHAR
STARTCHAR 00E8
ENCODING 232
SWIDTH 560 0
DWIDTH 7 0
BBX 5 10 1 0
BITMAP
40
20
00
70
88
88
F8
80
80
78
ENDCHAR
STARTCHAR 00E9
ENCODING 233
SWIDTH 560 0
DWIDTH 7 0
BBX 5 10 1 0
BITMAP
10
30
00
70
88
88
F8
80
80
78
ENDCHAR
STARTCHAR 00EA
ENCODING 234
SWIDTH 560 0
DWIDTH 7 0
BBX 5 10 1 0
BITMAP
20
50
88
70
88
88
F8
80
80
78
ENDCHAR
STARTCHAR 00EB
ENCODING 235
SWIDTH 560 0
DWIDTH 7 0
BBX 5 9 1 0
BITMAP
50
00
70
88
88
F8
80
80
78
ENDCHAR
STARTCHAR 00EC
ENCODING 236
SWIDTH 240 0
DWIDTH 3 0
BBX 3 10 0 0
BITMAP
80
40
20
40
40
40
40
40
40
40
ENDCHAR
STARTCHAR 00ED
ENCODING 237
SWIDTH 240 0
DWIDTH 3 0
BBX 2 10 1 0
BITMAP
40
C0
00
80
80
80
80
80
80
80
ENDCHAR
STARTCHAR 00EE
ENCODING 238
SWIDTH 240 0
DWIDTH 3 0
BBX 5 10 -1 0
BITMAP
20
50
88
20
20
20
20
20
20
20
ENDCHAR
STARTCHAR 00EF
ENCODING 239
SWIDTH 240 0
DWIDTH 3 0
BBX 3 9 0 0
BITMAP
A0
00
40
40
40
40
40
40
40
ENDCHAR
STARTCHAR 00F0
ENCODING 240
SWIDTH 640 0
DWIDTH 8 0
BBX 6 10 1 0
BITMAP
48
38
78
08
74
8C
84
84
8C
78
ENDCHAR
STARTCHAR 00F1
ENCODING 241
SWIDTH 640 0
DWIDTH 8 0
BBX 6 9 1 0
BITMAP
78
00
B8
CC
84
84
84
84
84
ENDCHAR
STARTCHAR 00F2
ENCODING 242
SWIDTH 640 0
DWIDTH 8 0
BBX 6 10 1 0
BITMAP
60
20
10
70
C8
84
84
84
8C
78
ENDCHAR
STARTCHAR 00F3
ENCODING 243
SWIDTH 640 0
DWIDTH 8 0
BBX 6 10 1 0
BITMAP
18
10
20
70
C8
84
84
84
8C
78
ENDCHAR
STARTCHAR 00F4
ENCODING 244
SWIDTH 640 0
DWIDTH 8 0
BBX 6 10 1 0
BITMAP
20
70
08
70
C8
84
84
84
8C
78
ENDCHAR
STARTCHAR 00F5
ENCODING 245
SWIDTH 640 0
DWIDTH 8 0
BBX 6 9 1 0
BITMAP
78
80
70
C8
84
84
84
8C
78
ENDCHAR
STARTCHAR 00F6
ENCODING 246
SWIDTH 640 0
DWIDTH 8 0
BBX 6 9 1 0
BITMAP
58
00
70
C8
84
84
84
8C
78
ENDCHAR
STARTCHAR 00F7
ENCODING 247
SWIDTH 560 0
DWIDTH 7 0
BBX 6 6 1 1
BITMAP
20
20
FC
00
20
20
ENDCHAR
STARTCHAR 00F8
ENCODING 248
SWIDTH 640 0
DWIDTH 8 0
BBX 6 7 1 0
BITMAP
74
C8
94
A4
A4
CC
F8
ENDCHAR
STARTCHAR 00F9
ENCODING 249
SWIDTH 640 0
DWIDTH 8 0
BBX 6 10 1 0
BITMAP
60
20
10
84
84
84
84
84
8C
74
ENDCHAR
STARTCHAR 00FA
ENCODING 250
SWIDTH 640 0
DWIDTH 8 0
BBX 6 10 1 0
BITMAP
18
10
20
84
84
84
84
84
8C
74
ENDCHAR
STARTCHAR 00FB
ENCODING 251
SWIDTH 640 0
DWIDTH 8 0
BBX 6 10 1 0
BITMAP
20
70
08
84
84
84
84
84
8C
74
ENDCHAR
STARTCHAR 00FC
ENCODING 252
SWIDTH 640 0
DWIDTH 8 0
BBX 6 9 1 0
BITMAP
58
00
84
84
84
84
84
8C
74
ENDCHAR
STARTCHAR 00FD
ENCODING 253
SWIDTH 480 0
DWIDTH 6 0
BBX 6 13 0 -3
BITMAP
08
10
00
84
C4
4C
48
28
30
10
10
20
C0
ENDCHAR
STARTCHAR 00FE
ENCODING 254
SWIDTH 640 0
DWIDTH 8 0
BBX 6 13 1 -3
BITMAP
80
80
80
B8
CC
84
84
84
CC
F8
80
80
80
ENDCHAR
STARTCHAR 00FF
ENCODING 255
SWIDTH 480 0
DWIDTH 6 0
BBX 6 12 0 -3
BITMAP
68
00
84
C4
4C
48
28
30
10
10
20
C0
ENDCHAR
STARTCHAR 0100
ENCODING 256
SWIDTH 640 0
DWIDTH 8 0
BBX 8 10 0 0
BITMAP
3C
18
18
18
24
24
7E
42
42
81
ENDCHAR
STARTCHAR 0101
ENCODING 257
SWIDTH 560 0
DWIDTH 7 0
BBX 5 8 1 0
BITMAP
70
70
88
08
78
88
88
F8
ENDCHAR
STARTCHAR 0102
ENCODING 258
SWIDTH 640 0
DWIDTH 8 0
BBX 8 11 0 0
BITMAP
3C
00
18
18
18
24
24
7E
42
42
81
ENDCHAR
STARTCHAR 0103
ENCODING 259
SWIDTH 560 0
DWIDTH 7 0
BBX 5 9 1 0
BITMAP
70
00
70
88
08
78
88
88
F8
ENDCHAR
STARTCHAR 0104
ENCODING 260
SWIDTH 640 0
DWIDTH 8 0
BBX 8 12 0 -3
BITMAP
18
18
18
24
24
7E
42
42
81
02
02
03
ENDCHAR
STARTCHAR 0105
ENCODING 261
SWIDTH 560 0
DWIDTH 7 0
BBX 5 10 1 -3
BITMAP
70
88
08
78
88
88
F8
08
10
08
ENDCHAR
STARTCHAR 0106
ENCODING 262
SWIDTH 640 0
DWIDTH 8 0
BBX 7 12 1 0
BITMAP
0C
08
10
3E
40
80
80
80
80
80
40
7C
ENDCHAR
STARTCHAR 0107
ENCODING 263
SWIDTH 480 0
DWIDTH 6 0
BBX 5 10 1 0
BITMAP
10
30
00
78
C0
80
80
80
80
70
ENDCHAR
STARTCHAR 010A
ENCODING 266
SWIDTH 640 0
DWIDTH 8 0
BBX 7 11 1 0
BITMAP
10
00
3E
40
80
80
80
80
80
40
7C
ENDCHAR
STARTCHAR 010B
ENCODING 267
SWIDTH 480 0
DWIDTH 6 0
BBX 5 9 1 0
BITMAP
20
00
78
C0
80
80
80
80
70
ENDCHAR
STARTCHAR 010C
ENCODING 268
SWIDTH 640 0
DWIDTH 8 0
BBX 7 12 1 0
BITMAP
24
38
00
3E
40
80
80
80
80
80
40
7C
ENDCHAR
STARTCHAR 010D
ENCODING 269
SWIDTH 480 0
DWIDTH 6 0
BBX 5 10 1 0
BITMAP
88
70
00
78
C0
80
80
80
80
70
ENDCHAR
STARTCHAR 010E
ENCODING 270
SWIDTH 720 0
DWIDTH 9 0
BBX 7 12 1 0
BITMAP
44
28
10
F8
84
82
82
82
82
82
84
F8
ENDCHAR
STARTCHAR 010F
ENCODING 271
SWIDTH 640 0
DWIDTH 8 0
BBX 8 10 1 0
BITMAP
07
06
06
74
CC
8C
84
8C
8C
74
ENDCHAR
STARTCHAR 0110
ENCODING 272
SWIDTH 720 0
DWIDTH 9 0
BBX 8 9 0 0
BITMAP
7C
42
41
41
F9
41
41
42
7C
ENDCHAR
STARTCHAR 0111
ENCODING 273
SWIDTH 640 0
DWIDTH 8 0
BBX 7 10 1 0
BITMAP
04
04
3E
74
CC
8C
84
8C
8C
74
ENDCHAR
STARTCHAR 0112
ENCODING 274
SWIDTH 560 0
DWIDTH 7 0
BBX 5 10 1 0
BITMAP
78
F8
80
80
80
F8
80
80
80
F8
ENDCHAR
STARTCHAR 0113
ENCODING 275
SWIDTH 560 0
DWIDTH 7 0
BBX 5 8 1 0
BITMAP
70
70
88
88
F8
80
80
78
ENDCHAR
STARTCHAR 0116
ENCODING 278
SWIDTH 560 0
DWIDTH 7 0
BBX 5 11 1 0
BITMAP
20
00
F8
80
80
80
F8
80
80
80
F8
ENDCHAR
STARTCHAR 0117
ENCODING 279
SWIDTH 560 0
DWIDTH 7 0
BBX 5 9 1 0
BITMAP
20
00
70
88
88
F8
80
80
78
ENDCHAR
STARTCHAR 0118
ENCODING 280
SWIDTH 560 0
DWIDTH 7 0
BBX 5 12 1 -3
BITMAP
F8
80
80
80
F8
80
80
80
F8
10
10
18
ENDCHAR
STARTCHAR 0119
ENCODING 281
SWIDTH 560 0
DWIDTH 7 0
BBX 5 10 1 -3
BITMAP
70
88
88
F8
80
80
78
10
10
18
ENDCHAR
STARTCHAR 011A
ENCODING 282
SWIDTH 560 0
DWIDTH 7 0
BBX 5 12 1 0
BITMAP
48
30
00
F8
80
80
80
F8
80
80
80
F8
ENDCHAR
STARTCHAR 011B
ENCODING 283
SWIDTH 560 0
DWIDTH 7 0
BBX 5 10 1 0
BITMAP
88
70
00
70
88
88
F8
80
80
78
ENDCHAR
STARTCHAR 011E
ENCODING 286
SWIDTH 720 0
DWIDTH 9 0
BBX 7 11 1 0
BITMAP
3C
00
3E
40
80
80
8E
82
82
42
3E
ENDCHAR
STARTCHAR 011F
ENCODING 287
SWIDTH 640 0
DWIDTH 8 0
BBX 6 12 1 -3
BITMAP
78
00
74
CC
8C
84
84
8C
74
04
08
F8
ENDCHAR
STARTCHAR 0120
ENCODING 288
SWIDTH 720 0
DWIDTH 9 0
BBX 7 11 1 0
BITMAP
18
00
3E
40
80
80
8E
82
82
42
3E
ENDCHAR
STARTCHAR 0121
ENCODING 289
SWIDTH 640 0
DWIDTH 8 0
BBX 6 12 1 -3
BITMAP
20
00
74
CC
8C
84
84
8C
74
04
08
F8
ENDCHAR
STARTCHAR 0122
ENCODING 290
SWIDTH 720 0
DWIDTH 9 0
BBX 7 12 1 -3
BITMAP
3E
40
80
80
8E
82
82
42
3E
00
08
10
ENDCHAR
STARTCHAR 0123
ENCODING 291
SWIDTH 640 0
DWIDTH 8 0
BBX 6 13 1 -3
BITMAP
10
20
00
74
CC
8C
84
84
8C
74
04
08
F8
ENDCHAR
STARTCHAR 0126
ENCODING 294
SWIDTH 720 0
DWIDTH 9 0
BBX 9 9 0 0
BITMAP
4100
4100
FF80
4100
7F00
4100
4100
4100
4100
ENDCHAR
STARTCHAR 0127
ENCODING 295
SWIDTH 640 0
DWIDTH 8 0
BBX 7 10 0 0
BITMAP
40
40
F8
58
64
42
42
42
42
42
ENDCHAR
STARTCHAR 012A
ENCODING 298
SWIDTH 320 0
DWIDTH 4 0
BBX 4 10 0 0
BITMAP
F0
F0
20
20
20
20
20
20
20
F0
ENDCHAR
STARTCHAR 012B
ENCODING 299
SWIDTH 240 0
DWIDTH 3 0
BBX 3 8 0 0
BITMAP
E0
40
40
40
40
40
40
40
ENDCHAR
STARTCHAR 012E
ENCODING 302
SWIDTH 320 0
DWIDTH 4 0
BBX 4 12 0 -3
BITMAP
F0
20
20
20
20
20
20
20
F0
20
20
30
ENDCHAR
STARTCHAR 012F
ENCODING 303
SWIDTH 240 0
DWIDTH 3 0
BBX 2 12 0 -3
BITMAP
40
00
40
40
40
40
40
40
40
40
80
40
ENDCHAR
STARTCHAR 0130
ENCODING 304
SWIDTH 320 0
DWIDTH 4 0
BBX 4 11 0 0
BITMAP
60
00
F0
20
20
20
20
20
20
20
F0
ENDCHAR
STARTCHAR 0131
ENCODING 305
SWIDTH 240 0
DWIDTH 3 0
BBX 1 7 1 0
BITMAP
80
80
80
80
80
80
80
ENDCHAR
STARTCHAR 0132
ENCODING 306
SWIDTH 640 0
DWIDTH 8 0
BBX 7 11 0 -2
BITMAP
F6
26
26
26
26
26
26
26
F6
04
1C
ENDCHAR
STARTCHAR 0133
ENCODING 307
SWIDTH 480 0
DWIDTH 6 0
BBX 4 12 1 -3
BITMAP
90
00
90
90
90
90
90
90
90
10
10
30
ENDCHAR
STARTCHAR 0136
ENCODING 310
SWIDTH 640 0
DWIDTH 8 0
BBX 7 12 1 -3
BITMAP
86
88
90
A0
E0
90
88
8C
86
00
10
20
ENDCHAR
STARTCHAR 0137
ENCODING 311
SWIDTH 560 0
DWIDTH 7 0
BBX 6 13 1 -3
BITMAP
80
80
80
88
90
A0
E0
B0
90
8C
00
20
40
ENDCHAR
STARTCHAR 0139
ENCODING 313
SWIDTH 560 0
DWIDTH 7 0
BBX 5 12 1 0
BITMAP
60
40
80
80
80
80
80
80
80
80
80
F8
ENDCHAR
STARTCHAR 013A
ENCODING 314
SWIDTH 240 0
DWIDTH 3 0
BBX 2 13 1 0
BITMAP
40
C0
00
80
80
80
80
80
80
80
80
80
80
ENDCHAR
STARTCHAR 013B
ENCODING 315
SWIDTH 560 0
DWIDTH 7 0
BBX 5 12 1 -3
BITMAP
80
80
80
80
80
80
80
80
F8
10
20
20
ENDCHAR
STARTCHAR 013C
ENCODING 316
SWIDTH 240 0
DWIDTH 3 0
BBX 1 13 1 -3
BITMAP
80
80
80
80
80
80
80
80
80
80
00
80
80
ENDCHAR
STARTCHAR 013D
ENCODING 317
SWIDTH 560 0
DWIDTH 7 0
BBX 5 9 1 0
BITMAP
88
88
88
80
80
80
80
80
F8
ENDCHAR
STARTCHAR 013E
ENCODING 318
SWIDTH 240 0
DWIDTH 3 0
BBX 3 10 1 0
BITMAP
A0
A0
A0
80
80
80
80
80
80
80
ENDCHAR
STARTCHAR 0141
ENCODING 321
SWIDTH 560 0
DWIDTH 7 0
BBX 6 9 0 0
BITMAP
40
40
40
50
78
C0
40
40
7C
ENDCHAR
STARTCHAR 0142
ENCODING 322
SWIDTH 240 0
DWIDTH 3 0
BBX 3 10 0 0
BITMAP
40
40
40
40
60
40
C0
40
40
40
ENDCHAR
STARTCHAR 0143
ENCODING 323
SWIDTH 800 0
DWIDTH 10 0
BBX 7 12 1 0
BITMAP
0C
08
10
C2
C2
A2
B2
92
8A
8E
86
82
ENDCHAR
STARTCHAR 0144
ENCODING 324
SWIDTH 640 0
DWIDTH 8 0
BBX 6 10 1 0
BITMAP
18
10
20
B8
CC
84
84
84
84
84
ENDCHAR
STARTCHAR 0145
ENCODING 325
SWIDTH 800 0
DWIDTH 10 0
BBX 7 12 1 -3
BITMAP
C2
C2
A2
B2
92
8A
8E
86
82
08
10
10
ENDCHAR
STARTCHAR 0146
ENCODING 326
SWIDTH 640 0
DWIDTH 8 0
BBX 6 10 1 -3
BITMAP
B8
CC
84
84
84
84
84
00
30
20
ENDCHAR
STARTCHAR 0147
ENCODING 327
SWIDTH 800 0
DWIDTH 10 0
BBX 7 12 1 0
BITMAP
24
38
00
C2
C2
A2
B2
92
8A
8E
86
82
ENDCHAR
STARTCHAR 0148
ENCODING 328
SWIDTH 640 0
DWIDTH 8 0
BBX 6 10 1 0
BITMAP
48
30
00
B8
CC
84
84
84
84
84
ENDCHAR
STARTCHAR 014A
ENCODING 330
SWIDTH 800 0
DWIDTH 10 0
BBX 7 11 1 -2
BITMAP
C2
C2
A2
B2
92
8A
86
86
82
02
0E
ENDCHAR
STARTCHAR 014B
ENCODING 331
SWIDTH 640 0
DWIDTH 8 0
BBX 6 10 1 -3
BITMAP
B8
CC
84
84
84
84
84
04
04
18
ENDCHAR
STARTCHAR 014C
ENCODING 332
SWIDTH 800 0
DWIDTH 10 0
BBX 8 10 1 0
BITMAP
3C
3C
42
83
81
81
81
83
42
7C
ENDCHAR
STARTCHAR 014D
ENCODING 333
SWIDTH 640 0
DWIDTH 8 0
BBX 6 8 1 0
BITMAP
78
70
C8
84
84
84
8C
78
ENDCHAR
STARTCHAR 0150
ENCODING 336
SWIDTH 800 0
DWIDTH 10 0
BBX 8 12 1 0
BITMAP
14
28
00
3C
42
83
81
81
81
83
42
7C
ENDCHAR
STARTCHAR 0151
ENCODING 337
SWIDTH 640 0
DWIDTH 8 0
BBX 6 10 1 0
BITMAP
28
50
00
70
C8
84
84
84
8C
78
ENDCHAR
STARTCHAR 0152
ENCODING 338
SWIDTH 960 0
DWIDTH 12 0
BBX 10 9 1 0
BITMAP
3FC0
4400
8400
8400
87C0
8400
8400
4400
3FC0
ENDCHAR
STARTCHAR 0153
ENCODING 339
SWIDTH 960 0
DWIDTH 12 0
BBX 10 7 1 0
BITMAP
7380
8C40
8C40
87C0
8400
8C00
7BC0
ENDCHAR
STARTCHAR 0154
ENCODING 340
SWIDTH 640 0
DWIDTH 8 0
BBX 7 12 1 0
BITMAP
18
10
20
F8
8C
84
84
F8
90
88
8C
86
ENDCHAR
STARTCHAR 0155
ENCODING 341
SWIDTH 400 0
DWIDTH 5 0
BBX 4 10 1 0
BITMAP
30
20
40
B0
C0
80
80
80
80
80
ENDCHAR
STARTCHAR 0156
ENCODING 342
SWIDTH 640 0
DWIDTH 8 0
BBX 7 12 1 -3
BITMAP
F8
8C
84
84
F8
90
88
8C
86
00
10
20
ENDCHAR
STARTCHAR 0157
ENCODING 343
SWIDTH 400 0
DWIDTH 5 0
BBX 4 10 1 -3
BITMAP
B0
C0
80
80
80
80
80
00
80
80
ENDCHAR
STARTCHAR 0158
ENCODING 344
SWIDTH 640 0
DWIDTH 8 0
BBX 7 12 1 0
BITMAP
48
30
00
F8
8C
84
84
F8
90
88
8C
86
ENDCHAR
STARTCHAR 0159
ENCODING 345
SWIDTH 400 0
DWIDTH 5 0
BBX 4 10 1 0
BITMAP
90
60
00
B0
C0
80
80
80
80
80
ENDCHAR
STARTCHAR 015A
ENCODING 346
SWIDTH 560 0
DWIDTH 7 0
BBX 5 12 1 0
BITMAP
10
30
00
78
80
80
C0
70
18
08
08
F0
ENDCHAR
STARTCHAR 015B
ENCODING 347
SWIDTH 480 0
DWIDTH 6 0
BBX 4 10 1 0
BITMAP
30
20
40
70
90
80
60
10
10
F0
ENDCHAR
STARTCHAR 015E
ENCODING 350
SWIDTH 560 0
DWIDTH 7 0
BBX 5 12 1 -3
BITMAP
78
80
80
C0
70
18
08
08
F0
20
60
60
ENDCHAR
STARTCHAR 015F
ENCODING 351
SWIDTH 480 0
DWIDTH 6 0
BBX 4 10 1 -3
BITMAP
70
90
80
60
10
10
F0
40
20
60
ENDCHAR
STARTCHAR 0160
ENCODING 352
SWIDTH 560 0
DWIDTH 7 0
BBX 5 12 1 0
BITMAP
88
70
00
78
80
80
C0
70
18
08
08
F0
ENDCHAR
STARTCHAR 0161
ENCODING 353
SWIDTH 480 0
DWIDTH 6 0
BBX 4 10 1 0
BITMAP
90
60
00
70
90
80
60
10
10
F0
ENDCHAR
STARTCHAR 0164
ENCODING 356
SWIDTH 560 0
DWIDTH 7 0
BBX 7 12 0 0
BITMAP
44
38
00
FE
10
10
10
10
10
10
10
10
ENDCHAR
STARTCHAR 0165
ENCODING 357
SWIDTH 400 0
DWIDTH 5 0
BBX 6 10 0 0
BITMAP
04
04
48
F0
40
40
40
40
40
30
ENDCHAR
STARTCHAR 016A
ENCODING 362
SWIDTH 720 0
DWIDTH 9 0
BBX 7 10 1 0
BITMAP
38
82
82
82
82
82
82
82
C6
7C
ENDCHAR
STARTCHAR 016B
ENCODING 363
SWIDTH 640 0
DWIDTH 8 0
BBX 6 8 1 0
BITMAP
78
84
84
84
84
84
8C
74
ENDCHAR
STARTCHAR 016C
ENCODING 364
SWIDTH 720 0
DWIDTH 9 0
BBX 7 11 1 0
BITMAP
3C
00
82
82
82
82
82
82
82
C6
7C
ENDCHAR
STARTCHAR 016D
ENCODING 365
SWIDTH 640 0
DWIDTH 8 0
BBX 6 9 1 0
BITMAP
78
00
84
84
84
84
84
8C
74
ENDCHAR
STARTCHAR 016E
ENCODING 366
SWIDTH 720 0
DWIDTH 9 0
BBX 7 12 1 0
BITMAP
38
28
10
82
82
82
82
82
82
82
C6
7C
ENDCHAR
STARTCHAR 016F
ENCODING 367
SWIDTH 640 0
DWIDTH 8 0
BBX 6 10 1 0
BITMAP
30
50
20
84
84
84
84
84
8C
74
ENDCHAR
STARTCHAR 0170
ENCODING 368
SWIDTH 720 0
DWIDTH 9 0
BBX 7 12 1 0
BITMAP
34
28
40
82
82
82
82
82
82
82
C6
7C
ENDCHAR
STARTCHAR 0171
ENCODING 369
SWIDTH 640 0
DWIDTH 8 0
BBX 6 10 1 0
BITMAP
28
50
00
84
84
84
84
84
8C
74
ENDCHAR
STARTCHAR 0172
ENCODING 370
SWIDTH 720 0
DWIDTH 9 0
BBX 7 12 1 -3
BITMAP
82
82
82
82
82
82
82
C6
7C
08
08
0C
ENDCHAR
STARTCHAR 0173
ENCODING 371
SWIDTH 640 0
DWIDTH 8 0
BBX 6 10 1 -3
BITMAP
84
84
84
84
84
8C
74
08
08
0C
ENDCHAR
STARTCHAR 0174
ENCODING 372
SWIDTH 960 0
DWIDTH 12 0
BBX 11 12 0 0
BITMAP
0400
0E00
0100
8420
4620
4E20
4A60
4940
2940
3140
3080
3080
ENDCHAR
STARTCHAR 0175
ENCODING 373
SWIDTH 800 0
DWIDTH 10 0
BBX 10 10 0 0
BITMAP
0800
1C00
0200
8C40
CC80
4C80
5680
5380
3300
2300
ENDCHAR
STARTCHAR 0176
ENCODING 374
SWIDTH 560 0
DWIDTH 7 0
BBX 7 12 0 0
BITMAP
10
28
44
82
44
44
28
38
10
10
10
10
ENDCHAR
STARTCHAR 0177
ENCODING 375
SWIDTH 480 0
DWIDTH 6 0
BBX 6 13 0 -3
BITMAP
10
38
40
84
C4
4C
48
28
30
10
10
20
C0
ENDCHAR
STARTCHAR 0178
ENCODING 376
SWIDTH 560 0
DWIDTH 7 0
BBX 7 11 0 0
BITMAP
28
00
82
44
44
28
38
10
10
10
10
ENDCHAR
STARTCHAR 0179
ENCODING 377
SWIDTH 560 0
DWIDTH 7 0
BBX 7 12 0 0
BITMAP
08
18
00
7E
04
08
08
10
20
20
40
FE
ENDCHAR
STARTCHAR 017A
ENCODING 378
SWIDTH 480 0
DWIDTH 6 0
BBX 5 10 0 0
BITMAP
18
10
20
78
08
10
30
20
40
F8
ENDCHAR
STARTCHAR 017B
ENCODING 379
SWIDTH 560 0
DWIDTH 7 0
BBX 7 11 0 0
BITMAP
10
00
7E
04
08
08
10
20
20
40
FE
ENDCHAR
STARTCHAR 017C
ENCODING 380
SWIDTH 480 0
DWIDTH 6 0
BBX 5 9 0 0
BITMAP
30
00
78
08
10
30
20
40
F8
ENDCHAR
STARTCHAR 017D
ENCODING 381
SWIDTH 560 0
DWIDTH 7 0
BBX 7 12 0 0
BITMAP
44
38
00
7E
04
08
08
10
20
20
40
FE
ENDCHAR
STARTCHAR 017E
ENCODING 382
SWIDTH 480 0
DWIDTH 6 0
BBX 5 10 0 0
BITMAP
48
30
00
78
08
10
30
20
40
F8
ENDCHAR
STARTCHAR 01CD
ENCODING 461
SWIDTH 640 0
DWIDTH 8 0
BBX 8 12 0 0
BITMAP
24
18
00
18
18
18
24
24
7E
42
42
81
ENDCHAR
STARTCHAR 01CE
ENCODING 462
SWIDTH 560 0
DWIDTH 7 0
BBX 5 10 1 0
BITMAP
88
50
20
70
88
08
78
88
88
F8
ENDCHAR
STARTCHAR 0218
ENCODING 536
SWIDTH 560 0
DWIDTH 7 0
BBX 5 12 1 -3
BITMAP
78
80
80
C0
70
18
08
08
F0
00
20
40
ENDCHAR
STARTCHAR 0219
ENCODING 537
SWIDTH 480 0
DWIDTH 6 0
BBX 4 10 1 -3
BITMAP
70
90
80
60
10
10
F0
00
20
40
ENDCHAR
STARTCHAR 021A
ENCODING 538
SWIDTH 560 0
DWIDTH 7 0
BBX 7 12 0 -3
BITMAP
FE
10
10
10
10
10
10
10
10
00
10
10
ENDCHAR
STARTCHAR 021B
ENCODING 539
SWIDTH 400 0
DWIDTH 5 0
BBX 4 11 0 -3
BITMAP
40
F0
40
40
40
40
40
30
00
20
20
ENDCHAR
STARTCHAR 0237
ENCODING 567
SWIDTH 240 0
DWIDTH 3 0
BBX 3 10 -1 -3
BITMAP
20
20
20
20
20
20
20
20
20
E0
ENDCHAR
STARTCHAR 02BC
ENCODING 700
SWIDTH 320 0
DWIDTH 4 0
BBX 2 3 1 6
BITMAP
40
80
80
ENDCHAR
STARTCHAR 02C6
ENCODING 710
SWIDTH 400 0
DWIDTH 5 0
BBX 5 2 0 8
BITMAP
20
D8
ENDCHAR
STARTCHAR 02C7
ENCODING 711
SWIDTH 400 0
DWIDTH 5 0
BBX 5 2 0 8
BITMAP
88
70
ENDCHAR
STARTCHAR 02C9
ENCODING 713
SWIDTH 400 0
DWIDTH 5 0
BBX 4 1 0 8
BITMAP
F0
ENDCHAR
STARTCHAR 02D8
ENCODING 728
SWIDTH 400 0
DWIDTH 5 0
BBX 4 1 0 8
BITMAP
F0
ENDCHAR
STARTCHAR 02D9
ENCODING 729
SWIDTH 160 0
DWIDTH 2 0
BBX 2 1 0 8
BITMAP
C0
ENDCHAR
STARTCHAR 02DA
ENCODING 730
SWIDTH 320 0
DWIDTH 4 0
BBX 3 2 0 8
BITMAP
60
E0
ENDCHAR
STARTCHAR 02DB
ENCODING 731
SWIDTH 240 0
DWIDTH 3 0
BBX 3 3 0 -3
BITMAP
40
80
60
ENDCHAR
STARTCHAR 02DC
ENCODING 732
SWIDTH 480 0
DWIDTH 6 0
BBX 5 1 0 8
BITMAP
F8
ENDCHAR
STARTCHAR 02DD
ENCODING 733
SWIDTH 400 0
DWIDTH 5 0
BBX 5 2 0 8
BITMAP
28
D0
ENDCHAR
STARTCHAR 0300
ENCODING 768
SWIDTH 0 0
DWIDTH 0 0
BBX 2 2 -6 8
BITMAP
80
40
ENDCHAR
STARTCHAR 0301
ENCODING 769
SWIDTH 0 0
DWIDTH 0 0
BBX 2 2 -4 8
BITMAP
40
C0
ENDCHAR
STARTCHAR 0302
ENCODING 770
SWIDTH 0 0
DWIDTH 0 0
BBX 4 2 -2 8
BITMAP
60
F0
ENDCHAR
STARTCHAR 0303
ENCODING 771
SWIDTH 0 0
DWIDTH 0 0
BBX 4 1 -6 8
BITMAP
F0
ENDCHAR
STARTCHAR 0304
ENCODING 772
SWIDTH 0 0
DWIDTH 0 0
BBX 4 1 -2 8
BITMAP
F0
ENDCHAR
STARTCHAR 0306
ENCODING 774
SWIDTH 0 0
DWIDTH 0 0
BBX 4 1 -2 8
BITMAP
F0
ENDCHAR
STARTCHAR 0307
ENCODING 775
SWIDTH 0 0
DWIDTH 0 0
BBX 2 1 -1 8
BITMAP
C0
ENDCHAR
STARTCHAR 0308
ENCODING 776
SWIDTH 0 0
DWIDTH 0 0
BBX 4 1 -2 8
BITMAP
90
ENDCHAR
STARTCHAR 030A
ENCODING 778
SWIDTH 0 0
DWIDTH 0 0
BBX 2 2 -1 8
BITMAP
C0
C0
ENDCHAR
STARTCHAR 030B
ENCODING 779
SWIDTH 0 0
DWIDTH 0 0
BBX 5 2 -2 8
BITMAP
68
D0
ENDCHAR
STARTCHAR 030C
ENCODING 780
SWIDTH 0 0
DWIDTH 0 0
BBX 4 2 -2 8
BITMAP
90
60
ENDCHAR
STARTCHAR 0312
ENCODING 786
SWIDTH 0 0
DWIDTH 0 0
BBX 2 3 -1 6
BITMAP
40
C0
80
ENDCHAR
STARTCHAR 0326
ENCODING 806
SWIDTH 0 0
DWIDTH 0 0
BBX 2 2 -1 -3
BITMAP
40
80
ENDCHAR
STARTCHAR 0327
ENCODING 807
SWIDTH 0 0
DWIDTH 0 0
BBX 2 3 -1 -3
BITMAP
80
40
C0
ENDCHAR
STARTCHAR 0328
ENCODING 808
SWIDTH 0 0
DWIDTH 0 0
BBX 2 3 -1 -3
BITMAP
C0
80
C0
ENDCHAR
STARTCHAR 0951
ENCODING 2385
SWIDTH 0 0
DWIDTH 0 0
BBX 1 3 -4 8
BITMAP
80
80
80
ENDCHAR
STARTCHAR 0952
ENCODING 2386
SWIDTH 0 0
DWIDTH 0 0
BBX 5 1 -6 -2
BITMAP
F8
ENDCHAR
STARTCHAR 0964
ENCODING 2404
SWIDTH 400 0
DWIDTH 5 0
BBX 1 8 2 0
BITMAP
80
80
80
80
80
80
80
80
ENDCHAR
STARTCHAR 0965
ENCODING 2405
SWIDTH 560 0
DWIDTH 7 0
BBX 4 8 2 0
BITMAP
90
90
90
90
90
90
90
90
ENDCHAR
STARTCHAR 0980
ENCODING 2432
SWIDTH 560 0
DWIDTH 7 0
BBX 6 9 1 -1
BITMAP
70
88
88
98
68
08
08
08
04
ENDCHAR
STARTCHAR 0981
ENCODING 2433
SWIDTH 0 0
DWIDTH 0 0
BBX 5 2 -4 9
BITMAP
A8
70
ENDCHAR
STARTCHAR 0982
ENCODING 2434
SWIDTH 400 0
DWIDTH 5 0
BBX 4 9 1 -1
BITMAP
60
B0
A0
40
80
40
20
10
10
ENDCHAR
STARTCHAR 0983
ENCODING 2435
SWIDTH 400 0
DWIDTH 5 0
BBX 4 8 1 0
BITMAP
60
B0
A0
40
00
E0
90
E0
ENDCHAR
STARTCHAR 0985
ENCODING 2437
SWIDTH 880 0
DWIDTH 11 0
BBX 11 8 0 0
BITMAP
FFE0
0840
8E40
5A40
4140
2340
1CC0
0040
ENDCHAR
STARTCHAR 0986
ENCODING 2438
SWIDTH 1120 0
DWIDTH 14 0
BBX 15 9 0 0
BITMAP
0008
FFFE
0848
8E48
5A48
4148
2348
1CC8
0048
ENDCHAR
STARTCHAR 0987
ENCODING 2439
SWIDTH 560 0
DWIDTH 7 0
BBX 7 12 0 -1
BITMAP
80
F0
08
FE
20
78
44
04
78
30
0C
02
ENDCHAR
STARTCHAR 0988
ENCODING 2440
SWIDTH 720 0
DWIDTH 9 0
BBX 9 11 0 0
BITMAP
4000
7C00
0200
FF80
6000
7200
4F00
0A00
5200
3200
0300
ENDCHAR
STARTCHAR 0989
ENCODING 2441
SWIDTH 720 0
DWIDTH 9 0
BBX 9 11 0 0
BITMAP
4000
7C00
0200
FF80
1000
9100
5300
4D00
2100
3300
0C00
ENDCHAR
STARTCHAR 098A
ENCODING 2442
SWIDTH 880 0
DWIDTH 11 0
BBX 11 11 0 0
BITMAP
2000
3F00
0080
FFE0
0400
A440
54C0
5340
2840
1CC0
0700
ENDCHAR
STARTCHAR 098B
ENCODING 2443
SWIDTH 880 0
DWIDTH 11 0
BBX 9 9 1 0
BITMAP
0500
9480
AC80
4C80
7480
C680
3680
0D80
0400
ENDCHAR
STARTCHAR 098C
ENCODING 2444
SWIDTH 640 0
DWIDTH 8 0
BBX 6 9 1 0
BITMAP
80
80
80
70
0C
E4
94
24
78
ENDCHAR
STARTCHAR 098F
ENCODING 2447
SWIDTH 720 0
DWIDTH 9 0
BBX 7 8 1 0
BITMAP
0E
12
22
A2
9A
82
FE
02
ENDCHAR
STARTCHAR 0990
ENCODING 2448
SWIDTH 880 0
DWIDTH 11 0
BBX 9 11 1 0
BITMAP
1000
1E00
0180
0E80
1280
2380
A200
9A00
8200
FE00
0200
ENDCHAR
STARTCHAR 0993
ENCODING 2451
SWIDTH 720 0
DWIDTH 9 0
BBX 9 7 0 1
BITMAP
0700
C900
5100
5B00
6100
2180
1F00
ENDCHAR
STARTCHAR 0994
ENCODING 2452
SWIDTH 880 0
DWIDTH 11 0
BBX 10 10 0 1
BITMAP
0800
0F00
00C0
0740
C940
51C0
5B00
6100
2180
1F00
ENDCHAR
STARTCHAR 0995
ENCODING 2453
SWIDTH 800 0
DWIDTH 10 0
BBX 10 8 0 0
BITMAP
FFC0
0400
1F00
E480
6440
1580
0C00
0400
ENDCHAR
STARTCHAR 0996
ENCODING 2454
SWIDTH 720 0
DWIDTH 9 0
BBX 8 9 1 0
BITMAP
04
93
AA
4A
32
42
32
0A
06
ENDCHAR
STARTCHAR 0997
ENCODING 2455
SWIDTH 640 0
DWIDTH 8 0
BBX 8 9 0 0
BITMAP
02
3B
46
F2
12
12
22
02
02
ENDCHAR
STARTCHAR 0998
ENCODING 2456
SWIDTH 640 0
DWIDTH 8 0
BBX 8 8 0 0
BITMAP
FF
42
4A
32
62
72
0A
06
ENDCHAR
STARTCHAR 0999
ENCODING 2457
SWIDTH 720 0
DWIDTH 9 0
BBX 8 8 0 0
BITMAP
6E
2A
9E
49
4F
61
31
1E
ENDCHAR
STARTCHAR 099A
ENCODING 2458
SWIDTH 560 0
DWIDTH 7 0
BBX 7 8 0 0
BITMAP
FE
40
60
5C
44
44
4C
30
ENDCHAR
STARTCHAR 099B
ENCODING 2459
SWIDTH 720 0
DWIDTH 9 0
BBX 9 9 0 -1
BITMAP
FF80
4000
7E00
4500
7900
0200
3C00
0700
0080
ENDCHAR
STARTCHAR 099C
ENCODING 2460
SWIDTH 880 0
DWIDTH 11 0
BBX 12 8 0 0
BITMAP
FFF0
0E00
91C0
5360
4D40
2140
1E40
0040
ENDCHAR
STARTCHAR 099D
ENCODING 2461
SWIDTH 800 0
DWIDTH 10 0
BBX 10 9 0 0
BITMAP
0080
FCC0
0480
1C80
E480
6680
1580
0D80
0400
ENDCHAR
STARTCHAR 099E
ENCODING 2462
SWIDTH 1040 0
DWIDTH 13 0
BBX 11 8 1 0
BITMAP
0E40
13A0
2220
A260
9B20
82E0
FE00
0200
ENDCHAR
STARTCHAR 099F
ENCODING 2463
SWIDTH 560 0
DWIDTH 7 0
BBX 7 11 0 0
BITMAP
80
F8
04
FE
40
40
4C
44
44
4C
30
ENDCHAR
STARTCHAR 09A0
ENCODING 2464
SWIDTH 560 0
DWIDTH 7 0
BBX 8 11 0 0
BITMAP
20
20
20
FF
18
14
14
32
C2
44
38
ENDCHAR
STARTCHAR 09A1
ENCODING 2465
SWIDTH 720 0
DWIDTH 9 0
BBX 9 8 0 0
BITMAP
FF80
1000
9100
5300
4D00
2100
3300
0C00
ENDCHAR
STARTCHAR 09A2
ENCODING 2466
SWIDTH 560 0
DWIDTH 7 0
BBX 7 8 0 0
BITMAP
FE
40
40
4C
44
44
4C
30
ENDCHAR
STARTCHAR 09A3
ENCODING 2467
SWIDTH 640 0
DWIDTH 8 0
BBX 8 9 0 0
BITMAP
04
73
4A
C6
62
12
02
02
02
ENDCHAR
STARTCHAR 09A4
ENCODING 2468
SWIDTH 720 0
DWIDTH 9 0
BBX 9 7 0 1
BITMAP
FF80
0000
8E00
4900
4100
2100
1E00
ENDCHAR
STARTCHAR 09A5
ENCODING 2469
SWIDTH 640 0
DWIDTH 8 0
BBX 8 9 0 0
BITMAP
02
73
CA
4A
1A
62
1A
06
02
ENDCHAR
STARTCHAR 09A6
ENCODING 2470
SWIDTH 640 0
DWIDTH 8 0
BBX 8 8 0 0
BITMAP
FF
40
46
5C
64
44
04
06
ENDCHAR
STARTCHAR 09A7
ENCODING 2471
SWIDTH 560 0
DWIDTH 7 0
BBX 8 8 0 0
BITMAP
37
44
3C
E4
64
14
0C
04
ENDCHAR
STARTCHAR 09A8
ENCODING 2472
SWIDTH 640 0
DWIDTH 8 0
BBX 8 8 0 0
BITMAP
FF
04
04
7C
44
44
24
04
ENDCHAR
STARTCHAR 09AA
ENCODING 2474
SWIDTH 720 0
DWIDTH 9 0
BBX 9 9 0 0
BITMAP
0100
3980
4500
E700
1900
3100
2100
0100
0100
ENDCHAR
STARTCHAR 09AB
ENCODING 2475
SWIDTH 800 0
DWIDTH 10 0
BBX 11 8 0 0
BITMAP
FFE0
6000
1380
3240
4240
33C0
0A00
0600
ENDCHAR
STARTCHAR 09AC
ENCODING 2476
SWIDTH 560 0
DWIDTH 7 0
BBX 8 8 0 0
BITMAP
FF
04
1C
E4
64
14
0C
04
ENDCHAR
STARTCHAR 09AD
ENCODING 2477
SWIDTH 720 0
DWIDTH 9 0
BBX 9 7 0 1
BITMAP
FF80
0000
9300
5F00
4100
2100
1F00
ENDCHAR
STARTCHAR 09AE
ENCODING 2478
SWIDTH 640 0
DWIDTH 8 0
BBX 8 8 0 0
BITMAP
FF
E2
22
12
7A
46
62
22
ENDCHAR
STARTCHAR 09AF
ENCODING 2479
SWIDTH 640 0
DWIDTH 8 0
BBX 8 8 0 0
BITMAP
FF
62
12
32
42
32
0A
06
ENDCHAR
STARTCHAR 09B0
ENCODING 2480
SWIDTH 560 0
DWIDTH 7 0
BBX 8 8 0 0
BITMAP
FF
04
1C
E4
64
14
0C
24
ENDCHAR
STARTCHAR 09B2
ENCODING 2482
SWIDTH 720 0
DWIDTH 9 0
BBX 9 8 0 0
BITMAP
FF80
0100
7500
4B00
4900
6100
0100
0100
ENDCHAR
STARTCHAR 09B6
ENCODING 2486
SWIDTH 640 0
DWIDTH 8 0
BBX 9 9 0 0
BITMAP
0200
DF80
3200
3200
7A00
0200
0200
0200
0200
ENDCHAR
STARTCHAR 09B7
ENCODING 2487
SWIDTH 640 0
DWIDTH 8 0
BBX 8 8 0 0
BITMAP
FF
62
1A
3E
42
32
0E
06
ENDCHAR
STARTCHAR 09B8
ENCODING 2488
SWIDTH 720 0
DWIDTH 9 0
BBX 9 8 0 0
BITMAP
FF80
E200
1600
1A00
D200
7200
0200
0200
ENDCHAR
STARTCHAR 09B9
ENCODING 2489
SWIDTH 560 0
DWIDTH 7 0
BBX 7 9 0 -1
BITMAP
FE
20
78
44
04
78
30
0C
02
ENDCHAR
STARTCHAR 09BC
ENCODING 2492
SWIDTH 0 0
DWIDTH 0 0
BBX 2 1 -4 -2
BITMAP
C0
ENDCHAR
STARTCHAR 09BD
ENCODING 2493
SWIDTH 560 0
DWIDTH 7 0
BBX 7 9 0 -1
BITMAP
E0
20
78
44
04
78
30
0C
02
ENDCHAR
STARTCHAR 09BE
ENCODING 2494
SWIDTH 240 0
DWIDTH 3 0
BBX 3 9 0 0
BITMAP
40
E0
40
40
40
40
40
40
40
ENDCHAR
STARTCHAR 09BF
ENCODING 2495
SWIDTH 240 0
DWIDTH 3 0
BBX 9 11 0 0
BITMAP
7E00
4100
8080
E000
4000
4000
4000
4000
4000
4000
4000
ENDCHAR
STARTCHAR 09C0
ENCODING 2496
SWIDTH 240 0
DWIDTH 3 0
BBX 10 11 -7 0
BITMAP
7F00
F980
0480
01C0
0080
0080
0080
0080
0080
0080
0080
ENDCHAR
STARTCHAR 09C1
ENCODING 2497
SWIDTH 0 0
DWIDTH 0 0
BBX 6 3 -5 -3
BITMAP
50
B0
EC
ENDCHAR
STARTCHAR 09C2
ENCODING 2498
SWIDTH 0 0
DWIDTH 0 0
BBX 6 3 -4 -3
BITMAP
60
90
EC
ENDCHAR
STARTCHAR 09C3
ENCODING 2499
SWIDTH 0 0
DWIDTH 0 0
BBX 4 3 -4 -3
BITMAP
60
C0
30
ENDCHAR
STARTCHAR 09C4
ENCODING 2500
SWIDTH 0 0
DWIDTH 0 0
BBX 4 5 -4 -5
BITMAP
60
C0
70
C0
30
ENDCHAR
STARTCHAR 09C7
ENCODING 2503
SWIDTH 320 0
DWIDTH 4 0
BBX 5 8 0 0
BITMAP
F0
20
40
40
40
40
40
38
ENDCHAR
STARTCHAR 09C8
ENCODING 2504
SWIDTH 320 0
DWIDTH 4 0
BBX 5 11 0 0
BITMAP
80
E0
10
F0
20
40
40
40
40
40
38
ENDCHAR
STARTCHAR 09CB
ENCODING 2507
SWIDTH 960 0
DWIDTH 12 0
BBX 12 9 0 0
BITMAP
0020
F0B0
2060
4020
4220
4020
4020
4020
3820
ENDCHAR
STARTCHAR 09CC
ENCODING 2508
SWIDTH 960 0
DWIDTH 12 0
BBX 12 11 0 0
BITMAP
0800
0FC0
0020
F0F0
2020
4020
4220
4020
4020
4020
3820
ENDCHAR
STARTCHAR 09CD
ENCODING 2509
SWIDTH 0 0
DWIDTH 0 0
BBX 3 3 -2 -3
BITMAP
80
C0
20
ENDCHAR
STARTCHAR 09CE
ENCODING 2510
SWIDTH 560 0
DWIDTH 7 0
BBX 6 8 1 0
BITMAP
70
88
98
F0
C0
30
08
04
ENDCHAR
STARTCHAR 09D7
ENCODING 2519
SWIDTH 240 0
DWIDTH 3 0
BBX 8 11 -5 0
BITMAP
80
7C
02
07
02
02
02
02
02
02
02
ENDCHAR
STARTCHAR 09DC
ENCODING 2524
SWIDTH 720 0
DWIDTH 9 0
BBX 9 10 0 -2
BITMAP
FF80
1000
9100
5300
4D00
2100
3300
0C00
0000
0800
ENDCHAR
STARTCHAR 09DD
ENCODING 2525
SWIDTH 560 0
DWIDTH 7 0
BBX 7 10 0 -2
BITMAP
FE
40
40
4C
44
44
4C
30
00
10
ENDCHAR
STARTCHAR 09DF
ENCODING 2527
SWIDTH 640 0
DWIDTH 8 0
BBX 8 8 0 0
BITMAP
FF
62
12
32
42
32
0A
66
ENDCHAR
STARTCHAR 09E0
ENCODING 2528
SWIDTH 880 0
DWIDTH 11 0
BBX 9 12 1 -3
BITMAP
0500
9480
AC80
4C80
7480
C680
3680
0D80
0400
0C00
1800
0700
ENDCHAR
STARTCHAR 09E1
ENCODING 2529
SWIDTH 640 0
DWIDTH 8 0
BBX 6 13 1 -4
BITMAP
80
80
80
70
0C
E4
94
24
78
20
18
68
38
ENDCHAR
STARTCHAR 09E2
ENCODING 2530
SWIDTH 0 0
DWIDTH 0 0
BBX 4 4 -4 -4
BITMAP
40
30
D0
60
ENDCHAR
STARTCHAR 09E3
ENCODING 2531
SWIDTH 0 0
DWIDTH 0 0
BBX 9 5 -7 -5
BITMAP
0400
6700
5A80
AF00
7000
ENDCHAR
STARTCHAR 09E6
ENCODING 2534
SWIDTH 560 0
DWIDTH 7 0
BBX 6 6 1 1
BITMAP
70
C8
88
8C
88
70
ENDCHAR
STARTCHAR 09E7
ENCODING 2535
SWIDTH 560 0
DWIDTH 7 0
BBX 4 8 2 0
BITMAP
80
80
C0
60
10
90
90
E0
ENDCHAR
STARTCHAR 09E8
ENCODING 2536
SWIDTH 560 0
DWIDTH 7 0
BBX 6 8 1 0
BITMAP
40
40
38
08
08
F0
10
0C
ENDCHAR
STARTCHAR 09E9
ENCODING 2537
SWIDTH 560 0
DWIDTH 7 0
BBX 7 7 0 0
BITMAP
1C
92
42
42
62
34
08
ENDCHAR
STARTCHAR 09EA
ENCODING 2538
SWIDTH 560 0
DWIDTH 7 0
BBX 6 8 1 0
BITMAP
70
88
88
78
D8
84
8C
78
ENDCHAR
STARTCHAR 09EB
ENCODING 2539
SWIDTH 560 0
DWIDTH 7 0
BBX 6 8 1 0
BITMAP
10
28
4C
88
90
90
8C
78
ENDCHAR
STARTCHAR 09EC
ENCODING 2540
SWIDTH 560 0
DWIDTH 7 0
BBX 7 7 0 0
BITMAP
30
94
56
5A
42
34
08
ENDCHAR
STARTCHAR 09ED
ENCODING 2541
SWIDTH 560 0
DWIDTH 7 0
BBX 6 8 1 0
BITMAP
70
C8
88
88
78
08
08
0C
ENDCHAR
STARTCHAR 09EE
ENCODING 2542
SWIDTH 560 0
DWIDTH 7 0
BBX 7 8 0 0
BITMAP
C0
40
40
7E
48
44
48
38
ENDCHAR
STARTCHAR 09EF
ENCODING 2543
SWIDTH 560 0
DWIDTH 7 0
BBX 7 8 0 0
BITMAP
40
C0
70
0C
72
92
16
38
ENDCHAR
STARTCHAR 09F0
ENCODING 2544
SWIDTH 560 0
DWIDTH 7 0
BBX 8 8 0 0
BITMAP
FF
04
1C
F4
6C
14
0C
04
ENDCHAR
STARTCHAR 09F1
ENCODING 2545
SWIDTH 560 0
DWIDTH 7 0
BBX 8 8 0 0
BITMAP
FF
04
1C
E4
64
14
6C
14
ENDCHAR
STARTCHAR 09F2
ENCODING 2546
SWIDTH 560 0
DWIDTH 7 0
BBX 5 5 1 1
BITMAP
C0
30
10
08
08
ENDCHAR
STARTCHAR 09F3
ENCODING 2547
SWIDTH 640 0
DWIDTH 8 0
BBX 7 9 0 0
BITMAP
E0
20
20
7E
20
26
22
26
1C
ENDCHAR
STARTCHAR 09F4
ENCODING 2548
SWIDTH 560 0
DWIDTH 7 0
BBX 5 5 1 1
BITMAP
08
18
30
60
80
ENDCHAR
STARTCHAR 09F5
ENCODING 2549
SWIDTH 720 0
DWIDTH 9 0
BBX 7 5 1 1
BITMAP
02
E4
9C
38
20
ENDCHAR
STARTCHAR 09F6
ENCODING 2550
SWIDTH 720 0
DWIDTH 9 0
BBX 7 8 1 0
BITMAP
02
02
42
B2
94
E4
88
F0
ENDCHAR
STARTCHAR 09F7
ENCODING 2551
SWIDTH 320 0
DWIDTH 4 0
BBX 1 8 1 0
BITMAP
80
80
80
80
80
80
80
80
ENDCHAR
STARTCHAR 09F8
ENCODING 2552
SWIDTH 720 0
DWIDTH 9 0
BBX 7 8 1 0
BITMAP
80
80
8C
94
E4
C4
04
06
ENDCHAR
STARTCHAR 09F9
ENCODING 2553
SWIDTH 480 0
DWIDTH 6 0
BBX 4 4 1 2
BITMAP
F0
90
90
F0
ENDCHAR
STARTCHAR 09FA
ENCODING 2554
SWIDTH 640 0
DWIDTH 8 0
BBX 7 4 1 5
BITMAP
06
B4
8C
78
ENDCHAR
STARTCHAR 09FB
ENCODING 2555
SWIDTH 320 0
DWIDTH 4 0
BBX 4 7 1 -2
BITMAP
C0
80
80
80
40
20
30
ENDCHAR
STARTCHAR 09FC
ENCODING 2556
SWIDTH 560 0
DWIDTH 7 0
BBX 5 7 1 -1
BITMAP
A8
D8
20
00
60
10
08
ENDCHAR
STARTCHAR 09FD
ENCODING 2557
SWIDTH 400 0
DWIDTH 5 0
BBX 4 3 1 3
BITMAP
E0
90
E0
ENDCHAR
STARTCHAR 09FE
ENCODING 2558
SWIDTH 0 0
DWIDTH 0 0
BBX 4 4 -2 7
BITMAP
E0
90
E0
10
ENDCHAR
STARTCHAR 1CD0
ENCODING 7376
SWIDTH 0 0
DWIDTH 0 0
BBX 4 3 -5 8
BITMAP
60
A0
90
ENDCHAR
STARTCHAR 1CD2
ENCODING 7378
SWIDTH 0 0
DWIDTH 0 0
BBX 4 1 -5 9
BITMAP
F0
ENDCHAR
STARTCHAR 1CD5
ENCODING 7381
SWIDTH 0 0
DWIDTH 0 0
BBX 6 2 -6 -3
BITMAP
A4
F8
ENDCHAR
STARTCHAR 1CD6
ENCODING 7382
SWIDTH 0 0
DWIDTH 0 0
BBX 4 2 -5 -3
BITMAP
80
F0
ENDCHAR
STARTCHAR 1CD8
ENCODING 7384
SWIDTH 0 0
DWIDTH 0 0
BBX 5 2 -6 -3
BITMAP
88
78
ENDCHAR
STARTCHAR 1CE1
ENCODING 7393
SWIDTH 480 0
DWIDTH 6 0
BBX 7 16 -1 -5
BITMAP
1E
10
10
10
10
10
10
10
10
10
08
08
08
08
10
F0
ENDCHAR
STARTCHAR 1CEA
ENCODING 7402
SWIDTH 720 0
DWIDTH 9 0
BBX 9 8 0 0
BITMAP
7300
9480
5580
3200
6100
4100
6100
3E00
ENDCHAR
STARTCHAR 1CED
ENCODING 7405
SWIDTH 0 0
DWIDTH 0 0
BBX 4 2 -4 -3
BITMAP
C0
30
ENDCHAR
STARTCHAR 1CF2
ENCODING 7410
SWIDTH 480 0
DWIDTH 6 0
BBX 6 5 0 1
BITMAP
C4
78
00
78
C4
ENDCHAR
STARTCHAR 1CF5
ENCODING 7413
SWIDTH 560 0
DWIDTH 7 0
BBX 5 7 1 0
BITMAP
88
98
50
20
70
90
88
ENDCHAR
STARTCHAR 1CF6
ENCODING 7414
SWIDTH 640 0
DWIDTH 8 0
BBX 6 3 1 2
BITMAP
A4
B4
48
ENDCHAR
STARTCHAR 1CF7
ENCODING 7415
SWIDTH 480 0
DWIDTH 6 0
BBX 4 14 2 -3
BITMAP
F0
80
80
80
80
80
80
80
80
80
80
80
80
80
ENDCHAR
STARTCHAR 1E80
ENCODING 7808
SWIDTH 960 0
DWIDTH 12 0
BBX 11 12 0 0
BITMAP
0C00
0400
0200
8420
4620
4E20
4A60
4940
2940
3140
3080
3080
ENDCHAR
STARTCHAR 1E81
ENCODING 7809
SWIDTH 800 0
DWIDTH 10 0
BBX 10 10 0 0
BITMAP
1800
0800
0400
8C40
CC80
4C80
5680
5380
3300
2300
ENDCHAR
STARTCHAR 1E82
ENCODING 7810
SWIDTH 960 0
DWIDTH 12 0
BBX 11 12 0 0
BITMAP
0300
0200
0400
8420
4620
4E20
4A60
4940
2940
3140
3080
3080
ENDCHAR
STARTCHAR 1E83
ENCODING 7811
SWIDTH 800 0
DWIDTH 10 0
BBX 10 10 0 0
BITMAP
0600
0400
0800
8C40
CC80
4C80
5680
5380
3300
2300
ENDCHAR
STARTCHAR 1E84
ENCODING 7812
SWIDTH 960 0
DWIDTH 12 0
BBX 11 11 0 0
BITMAP
0B00
0000
8420
4620
4E20
4A60
4940
2940
3140
3080
3080
ENDCHAR
STARTCHAR 1E85
ENCODING 7813
SWIDTH 800 0
DWIDTH 10 0
BBX 10 9 0 0
BITMAP
1200
0000
8C40
CC80
4C80
5680
5380
3300
2300
ENDCHAR
STARTCHAR 1E9E
ENCODING 7838
SWIDTH 720 0
DWIDTH 9 0
BBX 7 9 1 0
BITMAP
78
44
84
88
9E
82
82
82
BE
ENDCHAR
STARTCHAR 1EF2
ENCODING 7922
SWIDTH 560 0
DWIDTH 7 0
BBX 7 12 0 0
BITMAP
20
10
00
82
44
44
28
38
10
10
10
10
ENDCHAR
STARTCHAR 1EF3
ENCODING 7923
SWIDTH 480 0
DWIDTH 6 0
BBX 6 13 0 -3
BITMAP
20
30
00
84
C4
4C
48
28
30
10
10
20
C0
ENDCHAR
STARTCHAR 200B
ENCODING 8203
SWIDTH 0 0
DWIDTH 0 0
BBX 0 0 0 0
BITMAP
ENDCHAR
STARTCHAR 200C
ENCODING 8204
SWIDTH 0 0
DWIDTH 0 0
BBX 1 12 0 -2
BITMAP
80
80
80
80
80
80
80
80
80
80
80
80
ENDCHAR
STARTCHAR 200D
ENCODING 8205
SWIDTH 0 0
DWIDTH 0 0
BBX 4 12 -2 -2
BITMAP
90
60
60
D0
40
40
40
40
40
40
40
40
ENDCHAR
STARTCHAR 2010
ENCODING 8208
SWIDTH 320 0
DWIDTH 4 0
BBX 3 1 1 3
BITMAP
E0
ENDCHAR
STARTCHAR 2013
ENCODING 8211
SWIDTH 480 0
DWIDTH 6 0
BBX 6 1 0 3
BITMAP
FC
ENDCHAR
STARTCHAR 2014
ENCODING 8212
SWIDTH 1040 0
DWIDTH 13 0
BBX 12 1 0 3
BITMAP
FFF0
ENDCHAR
STARTCHAR 2018
ENCODING 8216
SWIDTH 320 0
DWIDTH 4 0
BBX 2 3 1 6
BITMAP
40
C0
80
ENDCHAR
STARTCHAR 2019
ENCODING 8217
SWIDTH 320 0
DWIDTH 4 0
BBX 2 3 1 6
BITMAP
40
80
80
ENDCHAR
STARTCHAR 201A
ENCODING 8218
SWIDTH 240 0
DWIDTH 3 0
BBX 2 3 0 -1
BITMAP
40
40
80
ENDCHAR
STARTCHAR 201C
ENCODING 8220
SWIDTH 480 0
DWIDTH 6 0
BBX 4 3 1 6
BITMAP
50
D0
B0
ENDCHAR
STARTCHAR 201D
ENCODING 8221
SWIDTH 480 0
DWIDTH 6 0
BBX 4 3 1 6
BITMAP
50
90
A0
ENDCHAR
STARTCHAR 201E
ENCODING 8222
SWIDTH 400 0
DWIDTH 5 0
BBX 5 3 0 -1
BITMAP
58
50
90
ENDCHAR
STARTCHAR 2022
ENCODING 8226
SWIDTH 400 0
DWIDTH 5 0
BBX 3 3 1 3
BITMAP
E0
E0
C0
ENDCHAR
STARTCHAR 2026
ENCODING 8230
SWIDTH 800 0
DWIDTH 10 0
BBX 8 2 1 0
BITMAP
89
99
ENDCHAR
STARTCHAR 2039
ENCODING 8249
SWIDTH 320 0
DWIDTH 4 0
BBX 3 5 0 1
BITMAP
20
60
C0
40
20
ENDCHAR
STARTCHAR 203A
ENCODING 8250
SWIDTH 320 0
DWIDTH 4 0
BBX 3 5 0 1
BITMAP
C0
40
20
20
C0
ENDCHAR
STARTCHAR 20AC
ENCODING 8364
SWIDTH 560 0
DWIDTH 7 0
BBX 7 9 0 0
BITMAP
1E
20
60
F8
40
F8
60
20
1E
ENDCHAR
STARTCHAR 20B9
ENCODING 8377
SWIDTH 560 0
DWIDTH 7 0
BBX 5 8 1 0
BITMAP
F8
20
F8
20
E0
40
20
30
ENDCHAR
STARTCHAR 2122
ENCODING 8482
SWIDTH 800 0
DWIDTH 10 0
BBX 9 4 0 5
BITMAP
F980
4D80
4D80
4A80
ENDCHAR
STARTCHAR 2212
ENCODING 8722
SWIDTH 560 0
DWIDTH 7 0
BBX 6 1 1 4
BITMAP
FC
ENDCHAR
STARTCHAR 25CC
ENCODING 9676
SWIDTH 480 0
DWIDTH 6 0
BBX 5 5 1 1
BITMAP
B0
00
08
90
20
ENDCHAR
STARTCHAR A8F1
ENCODING 43249
SWIDTH 0 0
DWIDTH 0 0
BBX 3 3 -3 8
BITMAP
C0
40
E0
ENDCHAR
ENDFONT
